<?xml version="1.0" standalone="no"?>
<!DOCTYPE svg PUBLIC "-//W3C//DTD SVG 20010904//EN"
 "http://www.w3.org/TR/2001/REC-SVG-20010904/DTD/svg10.dtd">
<svg version="1.0" xmlns="http://www.w3.org/2000/svg"
 width="512.000000pt" height="512.000000pt" viewBox="0 0 512.000000 512.000000"
 preserveAspectRatio="xMidYMid meet">
<metadata>
Created by potrace 1.11, written by Peter Selinger 2001-2013
</metadata>
<g transform="translate(0.000000,512.000000) scale(0.100000,-0.100000)"
fill="#000000" stroke="none">
<path d="M2315 4689 c-496 -60 -926 -268 -1271 -613 -182 -183 -298 -344 -409
-570 -350 -714 -268 -1573 212 -2214 78 -103 268 -298 373 -382 281 -224 617
-373 985 -437 157 -27 540 -25 702 5 1025 187 1762 1063 1763 2095 0 699 -341
1351 -915 1750 -254 175 -540 291 -860 348 -139 24 -449 34 -580 18z m416
-130 c398 -40 764 -190 1069 -436 89 -72 257 -243 321 -328 332 -434 475 -985
394 -1517 -50 -333 -186 -651 -394 -923 -68 -90 -235 -258 -331 -335 -392
-312 -900 -470 -1385 -431 -494 40 -920 235 -1266 580 -300 299 -487 660 -558
1079 -94 554 50 1114 403 1567 121 155 359 364 533 469 361 216 807 317 1214
275z"/>
<path d="M2400 3636 c-339 -72 -570 -321 -570 -616 0 -154 47 -266 175 -415
116 -134 181 -243 198 -332 5 -26 1 -37 -22 -62 -43 -46 -49 -95 -19 -158 8
-16 6 -33 -7 -67 -15 -39 -16 -53 -7 -85 7 -21 20 -46 31 -55 16 -15 18 -27
14 -76 -6 -59 -5 -60 33 -99 27 -26 52 -41 79 -45 30 -6 45 -16 60 -39 11 -17
40 -45 63 -62 40 -27 51 -30 122 -30 71 0 82 3 122 30 23 17 52 45 63 62 15
23 30 33 60 39 27 4 52 19 79 45 38 39 39 40 33 99 -4 46 -2 62 11 72 19 16
42 70 42 99 0 11 -7 36 -16 55 -15 31 -15 37 0 68 9 19 16 44 16 55 0 34 -26
87 -50 104 -21 15 -22 15 -5 76 24 85 88 189 189 306 100 116 139 185 162 281
21 91 14 235 -16 320 -70 200 -251 353 -500 421 -78 21 -260 26 -340 9z m265
-181 c155 -29 303 -124 368 -235 38 -66 61 -163 53 -231 -10 -101 -39 -158
-137 -270 -137 -158 -213 -292 -234 -416 l-7 -43 -158 0 -158 0 -7 43 c-21
124 -100 264 -240 424 -41 47 -83 104 -95 128 -98 202 -2 436 222 544 138 66
254 83 393 56z"/>
<path d="M2520 3230 c-24 -24 -24 -30 -7 -55 9 -12 35 -21 76 -26 113 -16 170
-57 186 -131 7 -34 38 -53 64 -38 28 14 34 43 20 89 -24 81 -124 152 -240 171
-82 13 -76 13 -99 -10z"/>
</g>
</svg>
